<?xml version="1.0" encoding="UTF-8" standalone="no"?>
<!DOCTYPE svg PUBLIC "-//W3C//DTD SVG 1.1//EN"
 "http://www.w3.org/Graphics/SVG/1.1/DTD/svg11.dtd">
<!-- Generated by graphviz version 2.40.1 (20161225.0304)
 -->
<!-- Title: %3 Pages: 1 -->
<svg width="1199pt" height="230pt"
 viewBox="0.00 0.00 1198.99 229.52" xmlns="http://www.w3.org/2000/svg" xmlns:xlink="http://www.w3.org/1999/xlink">
<g id="graph0" class="graph" transform="scale(1 1) rotate(0) translate(4 225.5219)">
<title>%3</title>
<polygon fill="#ffffff" stroke="transparent" points="-4,4 -4,-225.5219 1194.9903,-225.5219 1194.9903,4 -4,4"/>
<!-- Temperature (K) -->
<g id="node1" class="node">
<title>Temperature (K)</title>
<polygon fill="#d3d3d3" stroke="#000000" points="442.0491,-221.5219 367.0491,-221.5219 367.0491,-203.5219 442.0491,-203.5219 442.0491,-221.5219"/>
<text text-anchor="middle" x="404.5491" y="-210.3219" font-family="Times,serif" font-size="9.00" fill="#000000">Temperature (K)</text>
</g>
<!-- Star&#45;Type 2 -->
<g id="node8" class="node">
<title>Star&#45;Type 2</title>
<ellipse fill="#add8e6" stroke="#000000" cx="627.5491" cy="-41.0122" rx="41.0244" ry="41.0244"/>
<text text-anchor="middle" x="627.5491" y="-38.8122" font-family="Times,serif" font-size="9.00" fill="#000000">Star&#45;Type 2</text>
</g>
<!-- Temperature (K)&#45;&gt;Star&#45;Type 2 -->
<g id="edge68" class="edge">
<title>Temperature (K)&#45;&gt;Star&#45;Type 2</title>
<path fill="none" stroke="#ff0000" stroke-width=".1827" d="M410.954,-203.237C426.5195,-180.7487 465.638,-124.7136 473.5491,-118.0244 504.7857,-91.6121 546.6314,-71.4316 578.8185,-58.3675"/>
<polygon fill="#ff0000" stroke="#ff0000" stroke-width=".1827" points="580.4668,-61.4793 588.4751,-54.5426 577.8889,-54.9712 580.4668,-61.4793"/>
</g>
<!-- Star&#45;Type 3 -->
<g id="node9" class="node">
<title>Star&#45;Type 3</title>
<ellipse fill="#add8e6" stroke="#000000" cx="137.5491" cy="-41.0122" rx="41.0244" ry="41.0244"/>
<text text-anchor="middle" x="137.5491" y="-38.8122" font-family="Times,serif" font-size="9.00" fill="#000000">Star&#45;Type 3</text>
</g>
<!-- Temperature (K)&#45;&gt;Star&#45;Type 3 -->
<g id="edge54" class="edge">
<title>Temperature (K)&#45;&gt;Star&#45;Type 3</title>
<path fill="none" stroke="#ff0000" stroke-width=".1902" d="M366.9903,-209.1242C277.4485,-200.8458 58.0594,-179.4402 47.5491,-167.5219 19.7384,-135.9856 59.2386,-95.9084 94.344,-69.4089"/>
<polygon fill="#ff0000" stroke="#ff0000" stroke-width=".1902" points="96.6696,-72.0438 102.6654,-63.3088 92.531,-66.3983 96.6696,-72.0438"/>
</g>
<!-- Star&#45;Type 6 -->
<g id="node12" class="node">
<title>Star&#45;Type 6</title>
<ellipse fill="#add8e6" stroke="#000000" cx="464.5491" cy="-41.0122" rx="41.0244" ry="41.0244"/>
<text text-anchor="middle" x="464.5491" y="-38.8122" font-family="Times,serif" font-size="9.00" fill="#000000">Star&#45;Type 6</text>
</g>
<!-- Temperature (K)&#45;&gt;Star&#45;Type 6 -->
<g id="edge53" class="edge">
<title>Temperature (K)&#45;&gt;Star&#45;Type 6</title>
<path fill="none" stroke="#00ff00" stroke-width=".1018" d="M366.8424,-206.8064C343.4635,-201.1035 315.185,-189.8019 300.5491,-167.5219 288.4708,-149.1353 288.754,-136.5939 300.5491,-118.0244 325.3198,-79.0265 375.6504,-59.4273 414.0582,-49.8044"/>
<polygon fill="#00ff00" stroke="#00ff00" stroke-width=".1018" points="415.109,-53.1529 424.0424,-47.4569 413.5068,-46.3387 415.109,-53.1529"/>
</g>
<!-- 1542 -->
<g id="node14" class="node">
<title>1542</title>
<ellipse fill="#ffffff" stroke="#000000" cx="507.5491" cy="-142.7731" rx="25" ry="25"/>
<text text-anchor="middle" x="507.5491" y="-140.5731" font-family="Times,serif" font-size="9.00" fill="#000000">1542</text>
</g>
<!-- Temperature (K)&#45;&gt;1542 -->
<g id="edge45" class="edge">
<title>Temperature (K)&#45;&gt;1542</title>
<path fill="none" stroke="#00ff00" stroke-width=".5047" d="M418.0145,-203.4034C433.3097,-193.0459 458.7179,-175.8402 478.5681,-162.3982"/>
<polygon fill="#00ff00" stroke="#00ff00" stroke-width=".5047" points="480.6469,-165.2175 486.9646,-156.7123 476.7219,-159.4214 480.6469,-165.2175"/>
</g>
<!-- 1545 -->
<g id="node16" class="node">
<title>1545</title>
<ellipse fill="#ffffff" stroke="#000000" cx="190.5491" cy="-142.7731" rx="25" ry="25"/>
<text text-anchor="middle" x="190.5491" y="-140.5731" font-family="Times,serif" font-size="9.00" fill="#000000">1545</text>
</g>
<!-- Temperature (K)&#45;&gt;1545 -->
<g id="edge40" class="edge">
<title>Temperature (K)&#45;&gt;1545</title>
<path fill="none" stroke="#ff0000" stroke-width=".1903" d="M366.9001,-206.3808C330.6805,-199.6609 274.8904,-187.1519 229.5491,-167.5219 226.2858,-166.1091 222.9829,-164.4432 219.7519,-162.6542"/>
<polygon fill="#ff0000" stroke="#ff0000" stroke-width=".1903" points="221.3114,-159.5091 210.9297,-157.3946 217.7269,-165.5217 221.3114,-159.5091"/>
</g>
<!-- 1539 -->
<g id="node17" class="node">
<title>1539</title>
<ellipse fill="#ffffff" stroke="#000000" cx="574.5491" cy="-142.7731" rx="25" ry="25"/>
<text text-anchor="middle" x="574.5491" y="-140.5731" font-family="Times,serif" font-size="9.00" fill="#000000">1539</text>
</g>
<!-- Temperature (K)&#45;&gt;1539 -->
<g id="edge6" class="edge">
<title>Temperature (K)&#45;&gt;1539</title>
<path fill="none" stroke="#ff0000" stroke-width=".2403" d="M442.2101,-203.7078C470.5013,-196.2538 509.6906,-184.1247 541.5491,-167.5219 543.3114,-166.6034 545.0794,-165.5933 546.8311,-164.5222"/>
<polygon fill="#ff0000" stroke="#ff0000" stroke-width=".2403" points="549.002,-167.2804 555.3529,-158.8 545.0997,-161.4689 549.002,-167.2804"/>
</g>
<!-- 1536 -->
<g id="node21" class="node">
<title>1536</title>
<ellipse fill="#ffffff" stroke="#000000" cx="824.5491" cy="-142.7731" rx="25" ry="25"/>
<text text-anchor="middle" x="824.5491" y="-140.5731" font-family="Times,serif" font-size="9.00" fill="#000000">1536</text>
</g>
<!-- Temperature (K)&#45;&gt;1536 -->
<g id="edge58" class="edge">
<title>Temperature (K)&#45;&gt;1536</title>
<path fill="none" stroke="#ff0000" stroke-width=".2795" d="M442.1587,-204.8895C444.993,-204.3983 447.8134,-203.9357 450.5491,-203.5219 598.6107,-181.1246 644.1892,-216.9314 785.5491,-167.5219 789.088,-166.2849 792.635,-164.6744 796.0692,-162.8679"/>
<polygon fill="#ff0000" stroke="#ff0000" stroke-width=".2795" points="797.9499,-165.8226 804.8127,-157.7509 794.4142,-159.7812 797.9499,-165.8226"/>
</g>
<!-- Luminosity(L/Lo) -->
<g id="node2" class="node">
<title>Luminosity(L/Lo)</title>
<polygon fill="#d3d3d3" stroke="#000000" points="758.5491,-221.5219 678.5491,-221.5219 678.5491,-203.5219 758.5491,-203.5219 758.5491,-221.5219"/>
<text text-anchor="middle" x="718.5491" y="-210.3219" font-family="Times,serif" font-size="9.00" fill="#000000">Luminosity(L/Lo)</text>
</g>
<!-- Star&#45;Type 5 -->
<g id="node11" class="node">
<title>Star&#45;Type 5</title>
<ellipse fill="#add8e6" stroke="#000000" cx="824.5491" cy="-41.0122" rx="41.0244" ry="41.0244"/>
<text text-anchor="middle" x="824.5491" y="-38.8122" font-family="Times,serif" font-size="9.00" fill="#000000">Star&#45;Type 5</text>
</g>
<!-- Luminosity(L/Lo)&#45;&gt;Star&#45;Type 5 -->
<g id="edge66" class="edge">
<title>Luminosity(L/Lo)&#45;&gt;Star&#45;Type 5</title>
<path fill="none" stroke="#ff0000" stroke-width=".2865" d="M758.7687,-209.6325C812.9565,-204.8072 905.0093,-193.0065 925.5491,-167.5219 939.3539,-150.3936 935.309,-137.7397 925.5491,-118.0244 919.0733,-104.9431 892.2835,-84.7953 867.9224,-68.3884"/>
<polygon fill="#ff0000" stroke="#ff0000" stroke-width=".2865" points="869.7109,-65.3747 859.4441,-62.7588 865.8388,-71.2062 869.7109,-65.3747"/>
</g>
<!-- Luminosity(L/Lo)&#45;&gt;Star&#45;Type 6 -->
<g id="edge64" class="edge">
<title>Luminosity(L/Lo)&#45;&gt;Star&#45;Type 6</title>
<path fill="none" stroke="#00ff00" stroke-width=".4547" d="M709.4095,-203.4342C691.24,-185.6589 648.8488,-145.6198 608.5491,-118.0244 577.5207,-96.7776 539.9866,-76.873 511.0189,-62.6238"/>
<polygon fill="#00ff00" stroke="#00ff00" stroke-width=".4547" points="512.4571,-59.4313 501.9338,-58.2016 509.3934,-65.7253 512.4571,-59.4313"/>
</g>
<!-- Luminosity(L/Lo)&#45;&gt;1542 -->
<g id="edge42" class="edge">
<title>Luminosity(L/Lo)&#45;&gt;1542</title>
<path fill="none" stroke="#00ff00" stroke-width=".1981" d="M678.4689,-207.0373C641.3417,-200.8964 585.2758,-188.8823 540.5491,-167.5219 538.7558,-166.6654 536.9635,-165.7039 535.1932,-164.6701"/>
<polygon fill="#00ff00" stroke="#00ff00" stroke-width=".1981" points="536.9023,-161.6055 526.62,-159.0507 533.0649,-167.4599 536.9023,-161.6055"/>
</g>
<!-- 1544 -->
<g id="node20" class="node">
<title>1544</title>
<ellipse fill="#ffffff" stroke="#000000" cx="718.5491" cy="-142.7731" rx="25" ry="25"/>
<text text-anchor="middle" x="718.5491" y="-140.5731" font-family="Times,serif" font-size="9.00" fill="#000000">1544</text>
</g>
<!-- Luminosity(L/Lo)&#45;&gt;1544 -->
<g id="edge13" class="edge">
<title>Luminosity(L/Lo)&#45;&gt;1544</title>
<path fill="none" stroke="#ff0000" stroke-width=".1302" d="M718.5491,-203.4034C718.5491,-196.7867 718.5491,-187.3752 718.5491,-177.9355"/>
<polygon fill="#ff0000" stroke="#ff0000" stroke-width=".1302" points="722.0491,-177.8124 718.5491,-167.8124 715.0491,-177.8124 722.0491,-177.8124"/>
</g>
<!-- Luminosity(L/Lo)&#45;&gt;1536 -->
<g id="edge7" class="edge">
<title>Luminosity(L/Lo)&#45;&gt;1536</title>
<path fill="none" stroke="#00ff00" stroke-width=".3755" d="M732.4067,-203.4034C748.3162,-192.9348 774.8577,-175.4704 795.3792,-161.9671"/>
<polygon fill="#00ff00" stroke="#00ff00" stroke-width=".3755" points="797.3272,-164.8751 803.757,-156.4544 793.4794,-159.0275 797.3272,-164.8751"/>
</g>
<!-- Radius(R/Ro) -->
<g id="node3" class="node">
<title>Radius(R/Ro)</title>
<polygon fill="#d3d3d3" stroke="#000000" points="289.5491,-221.5219 223.5491,-221.5219 223.5491,-203.5219 289.5491,-203.5219 289.5491,-221.5219"/>
<text text-anchor="middle" x="256.5491" y="-210.3219" font-family="Times,serif" font-size="9.00" fill="#000000">Radius(R/Ro)</text>
</g>
<!-- Star&#45;Type 1 -->
<g id="node7" class="node">
<title>Star&#45;Type 1</title>
<ellipse fill="#add8e6" stroke="#000000" cx="272.5491" cy="-41.0122" rx="41.0244" ry="41.0244"/>
<text text-anchor="middle" x="272.5491" y="-38.8122" font-family="Times,serif" font-size="9.00" fill="#000000">Star&#45;Type 1</text>
</g>
<!-- Radius(R/Ro)&#45;&gt;Star&#45;Type 1 -->
<g id="edge37" class="edge">
<title>Radius(R/Ro)&#45;&gt;Star&#45;Type 1</title>
<path fill="none" stroke="#ff0000" stroke-width=".1514" d="M223.4519,-207.204C200.39,-201.5861 171.2277,-190.2236 156.5491,-167.5219 144.6043,-149.0483 146.1501,-137.4103 156.5491,-118.0244 171.0511,-90.9894 199.6842,-71.8323 224.8729,-59.3866"/>
<polygon fill="#ff0000" stroke="#ff0000" stroke-width=".1514" points="226.4102,-62.5313 233.9645,-55.1028 223.4265,-56.199 226.4102,-62.5313"/>
</g>
<!-- Radius(R/Ro)&#45;&gt;Star&#45;Type 3 -->
<g id="edge63" class="edge">
<title>Radius(R/Ro)&#45;&gt;Star&#45;Type 3</title>
<path fill="none" stroke="#00ff00" stroke-width=".4227" d="M223.4574,-211.5354C162.544,-208.9478 36.4248,-199.7363 9.5491,-167.5219 -4.5437,-150.6297 -1.2781,-137.1744 9.5491,-118.0244 26.4639,-88.107 60.1663,-68.5267 88.7434,-56.5983"/>
<polygon fill="#00ff00" stroke="#00ff00" stroke-width=".4227" points="90.203,-59.7846 98.2066,-52.8424 87.6207,-53.2783 90.203,-59.7846"/>
</g>
<!-- Star&#45;Type 4 -->
<g id="node10" class="node">
<title>Star&#45;Type 4</title>
<ellipse fill="#add8e6" stroke="#000000" cx="944.5491" cy="-41.0122" rx="41.0244" ry="41.0244"/>
<text text-anchor="middle" x="944.5491" y="-38.8122" font-family="Times,serif" font-size="9.00" fill="#000000">Star&#45;Type 4</text>
</g>
<!-- Radius(R/Ro)&#45;&gt;Star&#45;Type 4 -->
<g id="edge10" class="edge">
<title>Radius(R/Ro)&#45;&gt;Star&#45;Type 4</title>
<path fill="none" stroke="#ff0000" stroke-width=".5162" d="M289.7674,-209.5521C400.6691,-199.632 751.2738,-168.2239 752.5491,-167.5219 776.8445,-154.146 768.6473,-135.039 790.5491,-118.0244 822.6248,-93.106 838.2888,-100.3265 874.5491,-82.0244 883.1348,-77.6908 892.1204,-72.7513 900.6817,-67.8374"/>
<polygon fill="#ff0000" stroke="#ff0000" stroke-width=".5162" points="902.5346,-70.8086 909.4154,-62.7523 899.0124,-64.7593 902.5346,-70.8086"/>
</g>
<!-- 1537 -->
<g id="node15" class="node">
<title>1537</title>
<ellipse fill="#ffffff" stroke="#000000" cx="401.5491" cy="-142.7731" rx="25" ry="25"/>
<text text-anchor="middle" x="401.5491" y="-140.5731" font-family="Times,serif" font-size="9.00" fill="#000000">1537</text>
</g>
<!-- Radius(R/Ro)&#45;&gt;1537 -->
<g id="edge18" class="edge">
<title>Radius(R/Ro)&#45;&gt;1537</title>
<path fill="none" stroke="#ff0000" stroke-width=".1692" d="M285.1012,-203.3761C308.313,-195.3997 341.5239,-182.7367 368.5491,-167.5219 370.2807,-166.5469 372.0248,-165.4926 373.7581,-164.3874"/>
<polygon fill="#ff0000" stroke="#ff0000" stroke-width=".1692" points="375.9661,-167.117 382.2291,-158.5715 372.0041,-161.3462 375.9661,-167.117"/>
</g>
<!-- Radius(R/Ro)&#45;&gt;1545 -->
<g id="edge19" class="edge">
<title>Radius(R/Ro)&#45;&gt;1545</title>
<path fill="none" stroke="#ff0000" stroke-width=".3388" d="M247.9207,-203.4034C239.4714,-194.4742 226.2059,-180.4553 214.5582,-168.146"/>
<polygon fill="#ff0000" stroke="#ff0000" stroke-width=".3388" points="216.988,-165.6215 207.5725,-160.7635 211.9035,-170.4327 216.988,-165.6215"/>
</g>
<!-- Radius(R/Ro)&#45;&gt;1536 -->
<g id="edge55" class="edge">
<title>Radius(R/Ro)&#45;&gt;1536</title>
<path fill="none" stroke="#ff0000" stroke-width=".3567" d="M289.7528,-209.5214C309.455,-207.7514 334.9243,-205.4814 357.5491,-203.5219 547.731,-187.0502 604.6292,-228.4195 785.5491,-167.5219 789.1021,-166.3259 792.658,-164.7414 796.0974,-162.9502"/>
<polygon fill="#ff0000" stroke="#ff0000" stroke-width=".3567" points="797.9697,-165.9101 804.8469,-157.8506 794.4448,-159.8623 797.9697,-165.9101"/>
</g>
<!-- Absolute magnitude(Mv) -->
<g id="node4" class="node">
<title>Absolute magnitude(Mv)</title>
<polygon fill="#d3d3d3" stroke="#000000" points="567.0491,-221.5219 460.0491,-221.5219 460.0491,-203.5219 567.0491,-203.5219 567.0491,-221.5219"/>
<text text-anchor="middle" x="513.5491" y="-210.3219" font-family="Times,serif" font-size="9.00" fill="#000000">Absolute magnitude(Mv)</text>
</g>
<!-- Absolute magnitude(Mv)&#45;&gt;Star&#45;Type 1 -->
<g id="edge21" class="edge">
<title>Absolute magnitude(Mv)&#45;&gt;Star&#45;Type 1</title>
<path fill="none" stroke="#00ff00" stroke-width=".1506" d="M459.8728,-204.2709C400.5602,-194.6762 311.8611,-178.7257 300.5491,-167.5219 280.8661,-148.0271 273.6408,-118.0117 271.4424,-92.1092"/>
<polygon fill="#00ff00" stroke="#00ff00" stroke-width=".1506" points="274.9306,-91.8087 270.8153,-82.0458 267.9441,-92.2441 274.9306,-91.8087"/>
</g>
<!-- Absolute magnitude(Mv)&#45;&gt;Star&#45;Type 3 -->
<g id="edge29" class="edge">
<title>Absolute magnitude(Mv)&#45;&gt;Star&#45;Type 3</title>
<path fill="none" stroke="#ff0000" stroke-width=".2032" d="M459.9487,-204.7448C456.7696,-204.3208 453.6182,-203.9099 450.5491,-203.5219 378.0208,-194.3513 172.3322,-221.9704 123.5491,-167.5219 104.5065,-146.2678 108.2388,-114.2636 116.6141,-87.7638"/>
<polygon fill="#ff0000" stroke="#ff0000" stroke-width=".2032" points="119.9332,-88.8746 119.8762,-78.2799 113.3138,-86.5977 119.9332,-88.8746"/>
</g>
<!-- Absolute magnitude(Mv)&#45;&gt;Star&#45;Type 4 -->
<g id="edge67" class="edge">
<title>Absolute magnitude(Mv)&#45;&gt;Star&#45;Type 4</title>
<path fill="none" stroke="#00ff00" stroke-width=".266" d="M567.3538,-205.2627C572.152,-204.6571 576.937,-204.0683 581.5491,-203.5219 657.8771,-194.4785 869.9958,-220.6405 925.5491,-167.5219 945.4598,-148.4837 950.5369,-118.1956 950.4803,-92.0282"/>
<polygon fill="#00ff00" stroke="#00ff00" stroke-width=".266" points="953.9746,-91.7644 950.2091,-81.8614 946.9771,-91.9512 953.9746,-91.7644"/>
</g>
<!-- 1540 -->
<g id="node13" class="node">
<title>1540</title>
<ellipse fill="#ffffff" stroke="#000000" cx="891.5491" cy="-142.7731" rx="25" ry="25"/>
<text text-anchor="middle" x="891.5491" y="-140.5731" font-family="Times,serif" font-size="9.00" fill="#000000">1540</text>
</g>
<!-- Absolute magnitude(Mv)&#45;&gt;1540 -->
<g id="edge34" class="edge">
<title>Absolute magnitude(Mv)&#45;&gt;1540</title>
<path fill="none" stroke="#ff0000" stroke-width=".418" d="M567.3692,-205.3867C572.1642,-204.7547 576.9442,-204.1258 581.5491,-203.5219 704.6413,-187.3773 743.5537,-214.3024 858.5491,-167.5219 860.4396,-166.7528 862.3182,-165.8482 864.1641,-164.8478"/>
<polygon fill="#ff0000" stroke="#ff0000" stroke-width=".418" points="866.4523,-167.5414 873.0247,-159.2315 862.7047,-161.629 866.4523,-167.5414"/>
</g>
<!-- Absolute magnitude(Mv)&#45;&gt;1542 -->
<g id="edge11" class="edge">
<title>Absolute magnitude(Mv)&#45;&gt;1542</title>
<path fill="none" stroke="#ff0000" stroke-width=".6023" d="M512.7647,-203.4034C512.1908,-196.7325 511.3726,-187.2207 510.5539,-177.7034"/>
<polygon fill="#ff0000" stroke="#ff0000" stroke-width=".6023" points="514.0211,-177.1713 509.6768,-167.5081 507.0469,-177.7713 514.0211,-177.1713"/>
</g>
<!-- Absolute magnitude(Mv)&#45;&gt;1539 -->
<g id="edge4" class="edge">
<title>Absolute magnitude(Mv)&#45;&gt;1539</title>
<path fill="none" stroke="#ff0000" stroke-width=".1429" d="M521.5237,-203.4034C529.1003,-194.7402 540.867,-181.286 551.3929,-169.2504"/>
<polygon fill="#ff0000" stroke="#ff0000" stroke-width=".1429" points="554.1256,-171.4423 558.0742,-161.6108 548.8564,-166.8341 554.1256,-171.4423"/>
</g>
<!-- 1543 -->
<g id="node18" class="node">
<title>1543</title>
<ellipse fill="#ffffff" stroke="#000000" cx="334.5491" cy="-142.7731" rx="25" ry="25"/>
<text text-anchor="middle" x="334.5491" y="-140.5731" font-family="Times,serif" font-size="9.00" fill="#000000">1543</text>
</g>
<!-- Absolute magnitude(Mv)&#45;&gt;1543 -->
<g id="edge2" class="edge">
<title>Absolute magnitude(Mv)&#45;&gt;1543</title>
<path fill="none" stroke="#00ff00" stroke-width=".1183" d="M470.8432,-203.4821C440.9084,-196.1727 400.5172,-184.3195 367.5491,-167.5219 365.7784,-166.6197 364.0038,-165.6223 362.247,-164.5609"/>
<polygon fill="#00ff00" stroke="#00ff00" stroke-width=".1183" points="363.9723,-161.5045 353.7113,-158.8656 360.0871,-167.3274 363.9723,-161.5045"/>
</g>
<!-- Star color -->
<g id="node5" class="node">
<title>Star color</title>
<polygon fill="#d3d3d3" stroke="#000000" points="642.0491,-221.5219 591.0491,-221.5219 591.0491,-203.5219 642.0491,-203.5219 642.0491,-221.5219"/>
<text text-anchor="middle" x="616.5491" y="-210.3219" font-family="Times,serif" font-size="9.00" fill="#000000">Star color</text>
</g>
<!-- Star color&#45;&gt;Star&#45;Type 2 -->
<g id="edge9" class="edge">
<title>Star color&#45;&gt;Star&#45;Type 2</title>
<path fill="none" stroke="#ff0000" stroke-width=".5573" d="M617.1405,-203.3008C618.4623,-182.6905 621.7386,-131.6079 624.2654,-92.2107"/>
<polygon fill="#ff0000" stroke="#ff0000" stroke-width=".5573" points="627.7591,-92.4193 624.9064,-82.2158 620.7734,-91.9712 627.7591,-92.4193"/>
</g>
<!-- Star color&#45;&gt;Star&#45;Type 3 -->
<g id="edge1" class="edge">
<title>Star color&#45;&gt;Star&#45;Type 3</title>
<path fill="none" stroke="#00ff00" stroke-width=".4126" d="M590.6172,-206.2948C585.6376,-205.251 580.4483,-204.2668 575.5491,-203.5219 529.3529,-196.4976 190.6201,-199.4997 156.5491,-167.5219 136.391,-148.6022 131.344,-118.1713 131.4788,-91.8965"/>
<polygon fill="#00ff00" stroke="#00ff00" stroke-width=".4126" points="134.9835,-91.7894 131.7833,-81.6895 127.9866,-91.5806 134.9835,-91.7894"/>
</g>
<!-- Star color&#45;&gt;Star&#45;Type 4 -->
<g id="edge62" class="edge">
<title>Star color&#45;&gt;Star&#45;Type 4</title>
<path fill="none" stroke="#00ff00" stroke-width=".2662" d="M642.0927,-207.7264C650.7821,-206.2172 660.5667,-204.6515 669.5491,-203.5219 717.9982,-197.4287 1074.4649,-203.4368 1107.5491,-167.5219 1122.4539,-151.3417 1119.3222,-136.6078 1107.5491,-118.0244 1083.0247,-79.3136 1033.2338,-59.6914 995.1003,-49.9857"/>
<polygon fill="#00ff00" stroke="#00ff00" stroke-width=".2662" points="995.7227,-46.5359 985.1829,-47.6148 994.095,-53.3441 995.7227,-46.5359"/>
</g>
<!-- Star color&#45;&gt;1540 -->
<g id="edge15" class="edge">
<title>Star color&#45;&gt;1540</title>
<path fill="none" stroke="#ff0000" stroke-width=".244" d="M642.0952,-208.0946C702.2683,-197.6227 848.6199,-171.8807 858.5491,-167.5219 860.3687,-166.723 862.1816,-165.8066 863.9679,-164.8074"/>
<polygon fill="#ff0000" stroke="#ff0000" stroke-width=".244" points="866.0549,-167.627 872.5848,-159.2836 862.2772,-161.7339 866.0549,-167.627"/>
</g>
<!-- Star color&#45;&gt;1542 -->
<g id="edge26" class="edge">
<title>Star color&#45;&gt;1542</title>
<path fill="none" stroke="#ff0000" stroke-width=".4955" d="M599.9237,-203.3704C584.3095,-194.6145 560.4387,-180.8113 540.5491,-167.5219 538.8967,-166.4178 537.2148,-165.2623 535.5292,-164.0795"/>
<polygon fill="#ff0000" stroke="#ff0000" stroke-width=".4955" points="537.3441,-161.0727 527.1897,-158.0494 533.2424,-166.7452 537.3441,-161.0727"/>
</g>
<!-- Star color&#45;&gt;1539 -->
<g id="edge17" class="edge">
<title>Star color&#45;&gt;1539</title>
<path fill="none" stroke="#ff0000" stroke-width=".1497" d="M611.0583,-203.4034C606.3562,-195.5947 599.3101,-183.8935 592.6585,-172.8472"/>
<polygon fill="#ff0000" stroke="#ff0000" stroke-width=".1497" points="595.6179,-170.9769 587.4609,-164.2157 589.6212,-174.5879 595.6179,-170.9769"/>
</g>
<!-- Star color&#45;&gt;1543 -->
<g id="edge70" class="edge">
<title>Star color&#45;&gt;1543</title>
<path fill="none" stroke="#00ff00" stroke-width=".1945" d="M590.9967,-206.7279C585.8887,-205.6219 580.5549,-204.504 575.5491,-203.5219 483.4853,-185.4596 453.6882,-204.6975 367.5491,-167.5219 365.7245,-166.7344 363.9077,-165.8269 362.1184,-164.8345"/>
<polygon fill="#00ff00" stroke="#00ff00" stroke-width=".1945" points="363.8058,-161.7594 353.4933,-159.3296 360.0397,-167.66 363.8058,-161.7594"/>
</g>
<!-- Star color&#45;&gt;1536 -->
<g id="edge27" class="edge">
<title>Star color&#45;&gt;1536</title>
<path fill="none" stroke="#ff0000" stroke-width=".3776" d="M642.2724,-208.2068C676.1252,-201.9656 737.0178,-188.7795 785.5491,-167.5219 788.8062,-166.0951 792.1052,-164.4201 795.3337,-162.6256"/>
<polygon fill="#ff0000" stroke="#ff0000" stroke-width=".3776" points="797.3618,-165.4911 804.1528,-157.3589 793.7727,-159.4813 797.3618,-165.4911"/>
</g>
<!-- Spectral Class -->
<g id="node6" class="node">
<title>Spectral Class</title>
<polygon fill="#d3d3d3" stroke="#000000" points="925.0491,-221.5219 858.0491,-221.5219 858.0491,-203.5219 925.0491,-203.5219 925.0491,-221.5219"/>
<text text-anchor="middle" x="891.5491" y="-210.3219" font-family="Times,serif" font-size="9.00" fill="#000000">Spectral Class</text>
</g>
<!-- Spectral Class&#45;&gt;Star&#45;Type 2 -->
<g id="edge69" class="edge">
<title>Spectral Class&#45;&gt;Star&#45;Type 2</title>
<path fill="none" stroke="#00ff00" stroke-width=".4526" d="M901.4811,-203.2626C909.7183,-194.8515 920.8175,-181.6332 925.5491,-167.5219 932.5427,-146.6643 939.182,-135.2897 925.5491,-118.0244 882.7938,-63.8775 841.3438,-99.2977 774.5491,-82.0244 741.8508,-73.5685 705.2688,-63.3651 676.778,-55.251"/>
<polygon fill="#00ff00" stroke="#00ff00" stroke-width=".4526" points="677.6342,-51.8557 667.0575,-52.4744 675.7116,-58.5865 677.6342,-51.8557"/>
</g>
<!-- Spectral Class&#45;&gt;Star&#45;Type 4 -->
<g id="edge12" class="edge">
<title>Spectral Class&#45;&gt;Star&#45;Type 4</title>
<path fill="none" stroke="#00ff00" stroke-width=".17" d="M925.1996,-209.6827C997.449,-203.2463 1162.2181,-186.6129 1178.5491,-167.5219 1235.4506,-101.0032 1079.8108,-63.6332 995.1713,-48.714"/>
<polygon fill="#00ff00" stroke="#00ff00" stroke-width=".17" points="995.6685,-45.2482 985.2204,-47.0054 994.4839,-52.1473 995.6685,-45.2482"/>
</g>
<!-- Spectral Class&#45;&gt;Star&#45;Type 5 -->
<g id="edge31" class="edge">
<title>Spectral Class&#45;&gt;Star&#45;Type 5</title>
<path fill="none" stroke="#00ff00" stroke-width=".2163" d="M925.241,-210.5329C980.1144,-206.5127 1084.9535,-195.31 1107.5491,-167.5219 1121.4279,-150.4536 1121.7494,-134.8262 1107.5491,-118.0244 1045.5747,-44.6966 984.7801,-114.829 894.5491,-82.0244 885.4122,-78.7026 876.1136,-74.1906 867.4047,-69.3717"/>
<polygon fill="#00ff00" stroke="#00ff00" stroke-width=".2163" points="868.9848,-66.2426 858.5741,-64.2759 865.4861,-72.3055 868.9848,-66.2426"/>
</g>
<!-- Spectral Class&#45;&gt;1540 -->
<g id="edge33" class="edge">
<title>Spectral Class&#45;&gt;1540</title>
<path fill="none" stroke="#00ff00" stroke-width=".2648" d="M891.5491,-203.4034C891.5491,-196.7867 891.5491,-187.3752 891.5491,-177.9355"/>
<polygon fill="#00ff00" stroke="#00ff00" stroke-width=".2648" points="895.0491,-177.8124 891.5491,-167.8124 888.0491,-177.8124 895.0491,-177.8124"/>
</g>
<!-- Spectral Class&#45;&gt;1542 -->
<g id="edge8" class="edge">
<title>Spectral Class&#45;&gt;1542</title>
<path fill="none" stroke="#00ff00" stroke-width=".2344" d="M857.8288,-210.3979C781.5135,-205.2389 597.7613,-190.7384 540.5491,-167.5219 538.6579,-166.7544 536.7787,-165.8511 534.9325,-164.8517"/>
<polygon fill="#00ff00" stroke="#00ff00" stroke-width=".2344" points="536.3914,-161.6328 526.0708,-159.238 532.6454,-167.5461 536.3914,-161.6328"/>
</g>
<!-- Spectral Class&#45;&gt;1537 -->
<g id="edge36" class="edge">
<title>Spectral Class&#45;&gt;1537</title>
<path fill="none" stroke="#00ff00" stroke-width=".2989" d="M858.0274,-209.888C772.3292,-202.9984 546.8402,-183.8467 473.5491,-167.5219 460.4458,-164.6033 446.4071,-160.1051 434.2375,-155.7402"/>
<polygon fill="#00ff00" stroke="#00ff00" stroke-width=".2989" points="435.1094,-152.3309 424.5163,-152.1425 432.6798,-158.8958 435.1094,-152.3309"/>
</g>
<!-- Spectral Class&#45;&gt;1539 -->
<g id="edge16" class="edge">
<title>Spectral Class&#45;&gt;1539</title>
<path fill="none" stroke="#00ff00" stroke-width=".2343" d="M857.8298,-205.27C816.8465,-196.4378 745.5943,-181.0243 684.5491,-167.5219 659.2546,-161.9271 630.7149,-155.5027 609.0454,-150.6017"/>
<polygon fill="#00ff00" stroke="#00ff00" stroke-width=".2343" points="609.5298,-147.1229 599.0038,-148.3285 607.9842,-153.9501 609.5298,-147.1229"/>
</g>
<!-- 1541 -->
<g id="node19" class="node">
<title>1541</title>
<ellipse fill="#ffffff" stroke="#000000" cx="1073.5491" cy="-142.7731" rx="25" ry="25"/>
<text text-anchor="middle" x="1073.5491" y="-140.5731" font-family="Times,serif" font-size="9.00" fill="#000000">1541</text>
</g>
<!-- Spectral Class&#45;&gt;1541 -->
<g id="edge65" class="edge">
<title>Spectral Class&#45;&gt;1541</title>
<path fill="none" stroke="#ff0000" stroke-width=".1134" d="M925.1224,-204.6078C954.7013,-197.0201 998.5576,-184.2539 1034.5491,-167.5219 1037.7736,-166.0228 1041.0512,-164.3005 1044.2668,-162.4773"/>
<polygon fill="#ff0000" stroke="#ff0000" stroke-width=".1134" points="1046.3102,-165.3323 1053.069,-157.1733 1042.6974,-159.3366 1046.3102,-165.3323"/>
</g>
<!-- Spectral Class&#45;&gt;1536 -->
<g id="edge56" class="edge">
<title>Spectral Class&#45;&gt;1536</title>
<path fill="none" stroke="#ff0000" stroke-width=".1808" d="M882.79,-203.4034C874.2126,-194.4742 860.7462,-180.4553 848.922,-168.146"/>
<polygon fill="#ff0000" stroke="#ff0000" stroke-width=".1808" points="851.2821,-165.5506 841.8304,-160.7635 846.2339,-170.3999 851.2821,-165.5506"/>
</g>
<!-- 1540&#45;&gt;Star&#45;Type 2 -->
<g id="edge43" class="edge">
<title>1540&#45;&gt;Star&#45;Type 2</title>
<path fill="none" stroke="#00ff00" stroke-width=".418" d="M872.3447,-126.762C867.9808,-123.5895 863.2431,-120.4839 858.5491,-118.0244 799.6435,-87.1598 725.9059,-65.1474 677.8075,-52.7625"/>
<polygon fill="#00ff00" stroke="#00ff00" stroke-width=".418" points="678.5008,-49.3276 667.9476,-50.2661 676.7826,-56.1135 678.5008,-49.3276"/>
</g>
<!-- 1540&#45;&gt;Star&#45;Type 4 -->
<g id="edge52" class="edge">
<title>1540&#45;&gt;Star&#45;Type 4</title>
<path fill="none" stroke="#ff0000" stroke-width=".1002" d="M903.0493,-120.6925C908.2896,-110.631 914.6967,-98.3292 920.8939,-86.4305"/>
<polygon fill="#ff0000" stroke="#ff0000" stroke-width=".1002" points="924.0541,-87.9398 925.5692,-77.4538 917.8456,-84.7062 924.0541,-87.9398"/>
</g>
<!-- 1540&#45;&gt;Star&#45;Type 5 -->
<g id="edge38" class="edge">
<title>1540&#45;&gt;Star&#45;Type 5</title>
<path fill="none" stroke="#ff0000" stroke-width=".5273" d="M877.6666,-121.6882C870.4349,-110.7045 861.32,-96.8607 852.6919,-83.7561"/>
<polygon fill="#ff0000" stroke="#ff0000" stroke-width=".5273" points="855.5394,-81.7162 847.1169,-75.2887 849.6928,-85.5656 855.5394,-81.7162"/>
</g>
<!-- 1540&#45;&gt;Star&#45;Type 6 -->
<g id="edge50" class="edge">
<title>1540&#45;&gt;Star&#45;Type 6</title>
<path fill="none" stroke="#00ff00" stroke-width=".2591" d="M873.0275,-126.3079C868.5496,-123.0832 863.5923,-120.0707 858.5491,-118.0244 741.8774,-70.6856 699.9158,-111.6828 577.5491,-82.0244 555.4993,-76.6801 531.7992,-68.479 511.8268,-60.8112"/>
<polygon fill="#00ff00" stroke="#00ff00" stroke-width=".2591" points="512.9331,-57.4858 502.3451,-57.1047 510.3844,-64.0054 512.9331,-57.4858"/>
</g>
<!-- 1542&#45;&gt;Star&#45;Type 1 -->
<g id="edge20" class="edge">
<title>1542&#45;&gt;Star&#45;Type 1</title>
<path fill="none" stroke="#ff0000" stroke-width=".5795" d="M484.5884,-132.8306C446.505,-116.3395 369.525,-83.0052 319.5467,-61.3633"/>
<polygon fill="#ff0000" stroke="#ff0000" stroke-width=".5795" points="320.805,-58.0942 310.2376,-57.3323 318.0234,-64.5179 320.805,-58.0942"/>
</g>
<!-- 1542&#45;&gt;Star&#45;Type 2 -->
<g id="edge39" class="edge">
<title>1542&#45;&gt;Star&#45;Type 2</title>
<path fill="none" stroke="#ff0000" stroke-width=".1278" d="M526.5634,-126.6488C543.0889,-112.6351 567.56,-91.8833 588.274,-74.3177"/>
<polygon fill="#ff0000" stroke="#ff0000" stroke-width=".1278" points="590.6413,-76.8993 596.0045,-67.7622 586.1139,-71.5605 590.6413,-76.8993"/>
</g>
<!-- 1537&#45;&gt;Star&#45;Type 3 -->
<g id="edge60" class="edge">
<title>1537&#45;&gt;Star&#45;Type 3</title>
<path fill="none" stroke="#00ff00" stroke-width=".3134" d="M382.4882,-126.4743C378.1154,-123.3196 373.3378,-120.2941 368.5491,-118.0244 308.157,-89.3998 285.4287,-104.6677 222.5491,-82.0244 209.2758,-77.2446 195.3158,-71.0407 182.6325,-64.9113"/>
<polygon fill="#00ff00" stroke="#00ff00" stroke-width=".3134" points="184.1676,-61.766 173.6507,-60.4828 181.072,-68.0443 184.1676,-61.766"/>
</g>
<!-- 1537&#45;&gt;Star&#45;Type 5 -->
<g id="edge23" class="edge">
<title>1537&#45;&gt;Star&#45;Type 5</title>
<path fill="none" stroke="#ff0000" stroke-width=".6459" d="M424.9383,-133.6935C438.8869,-128.5413 457.0403,-122.2904 473.5491,-118.0244 562.6886,-94.99 587.7688,-102.4193 677.5491,-82.0244 710.4839,-74.5427 747.0668,-64.3434 775.499,-55.9877"/>
<polygon fill="#ff0000" stroke="#ff0000" stroke-width=".6459" points="776.6016,-59.3116 785.1966,-53.1166 774.6144,-52.5995 776.6016,-59.3116"/>
</g>
<!-- 1537&#45;&gt;Star&#45;Type 6 -->
<g id="edge28" class="edge">
<title>1537&#45;&gt;Star&#45;Type 6</title>
<path fill="none" stroke="#ff0000" stroke-width=".4806" d="M414.6027,-121.6882C421.2208,-110.9983 429.5161,-97.5993 437.4344,-84.8092"/>
<polygon fill="#ff0000" stroke="#ff0000" stroke-width=".4806" points="440.5428,-86.4375 442.8308,-76.0926 434.591,-82.7527 440.5428,-86.4375"/>
</g>
<!-- 1545&#45;&gt;Star&#45;Type 1 -->
<g id="edge44" class="edge">
<title>1545&#45;&gt;Star&#45;Type 1</title>
<path fill="none" stroke="#00ff00" stroke-width=".3991" d="M206.3595,-123.1526C216.0193,-111.1648 228.725,-95.3972 240.4195,-80.8846"/>
<polygon fill="#00ff00" stroke="#00ff00" stroke-width=".3991" points="243.2373,-82.9658 246.7866,-72.9831 237.7867,-78.5736 243.2373,-82.9658"/>
</g>
<!-- 1545&#45;&gt;Star&#45;Type 2 -->
<g id="edge47" class="edge">
<title>1545&#45;&gt;Star&#45;Type 2</title>
<path fill="none" stroke="#00ff00" stroke-width=".1371" d="M214.9343,-136.8848C237.1714,-131.611 270.9696,-123.8354 300.5491,-118.0244 395.1876,-99.4323 421.2792,-106.5777 514.5491,-82.0244 536.4897,-76.2485 560.1733,-67.9824 580.163,-60.3826"/>
<polygon fill="#00ff00" stroke="#00ff00" stroke-width=".1371" points="581.5864,-63.5849 589.6556,-56.7191 579.066,-57.0544 581.5864,-63.5849"/>
</g>
<!-- 1545&#45;&gt;Star&#45;Type 3 -->
<g id="edge35" class="edge">
<title>1545&#45;&gt;Star&#45;Type 3</title>
<path fill="none" stroke="#00ff00" stroke-width=".1113" d="M179.0488,-120.6925C173.8085,-110.631 167.4014,-98.3292 161.2042,-86.4305"/>
<polygon fill="#00ff00" stroke="#00ff00" stroke-width=".1113" points="164.2525,-84.7062 156.5289,-77.4538 158.044,-87.9398 164.2525,-84.7062"/>
</g>
<!-- 1545&#45;&gt;Star&#45;Type 6 -->
<g id="edge22" class="edge">
<title>1545&#45;&gt;Star&#45;Type 6</title>
<path fill="none" stroke="#00ff00" stroke-width=".2497" d="M213.9101,-134.097C258.5333,-117.5244 356.7262,-81.0566 416.0981,-59.0064"/>
<polygon fill="#00ff00" stroke="#00ff00" stroke-width=".2497" points="417.4812,-62.2264 425.637,-55.4638 415.044,-55.6643 417.4812,-62.2264"/>
</g>
<!-- 1539&#45;&gt;Star&#45;Type 1 -->
<g id="edge5" class="edge">
<title>1539&#45;&gt;Star&#45;Type 1</title>
<path fill="none" stroke="#00ff00" stroke-width=".3712" d="M555.4278,-126.5989C551.0588,-123.4365 546.2979,-120.3763 541.5491,-118.0244 488.9752,-91.9867 470.9537,-98.164 414.5491,-82.0244 383.6784,-73.1911 349.0595,-63.1943 321.7324,-55.2821"/>
<polygon fill="#00ff00" stroke="#00ff00" stroke-width=".3712" points="322.5938,-51.8878 312.0149,-52.4673 320.6463,-58.6114 322.5938,-51.8878"/>
</g>
<!-- 1539&#45;&gt;Star&#45;Type 2 -->
<g id="edge46" class="edge">
<title>1539&#45;&gt;Star&#45;Type 2</title>
<path fill="none" stroke="#00ff00" stroke-width=".1123" stroke-dasharray="1,5" d="M586.0493,-120.6925C591.2896,-110.631 597.6967,-98.3292 603.8939,-86.4305"/>
<polygon fill="#00ff00" stroke="#00ff00" stroke-width=".1123" points="607.0541,-87.9398 608.5692,-77.4538 600.8456,-84.7062 607.0541,-87.9398"/>
</g>
<!-- 1539&#45;&gt;Star&#45;Type 5 -->
<g id="edge57" class="edge">
<title>1539&#45;&gt;Star&#45;Type 5</title>
<path fill="none" stroke="#00ff00" stroke-width=".2527" d="M597.6203,-133.3821C638.2156,-116.8581 723.1902,-82.2697 776.8589,-60.4242"/>
<polygon fill="#00ff00" stroke="#00ff00" stroke-width=".2527" points="778.2284,-63.6456 786.171,-56.6338 775.5893,-57.1622 778.2284,-63.6456"/>
</g>
<!-- 1539&#45;&gt;Star&#45;Type 6 -->
<g id="edge41" class="edge">
<title>1539&#45;&gt;Star&#45;Type 6</title>
<path fill="none" stroke="#ff0000" stroke-width=".311" d="M555.8891,-125.5108C541.3006,-112.015 520.5382,-92.8077 502.4938,-76.1149"/>
<polygon fill="#ff0000" stroke="#ff0000" stroke-width=".311" points="504.6704,-73.3604 494.9529,-69.1388 499.9168,-78.4989 504.6704,-73.3604"/>
</g>
<!-- 1543&#45;&gt;Star&#45;Type 1 -->
<g id="edge71" class="edge">
<title>1543&#45;&gt;Star&#45;Type 1</title>
<path fill="none" stroke="#00ff00" stroke-width=".1661" d="M321.4004,-121.1922C314.9311,-110.574 306.8883,-97.3733 299.2081,-84.7678"/>
<polygon fill="#00ff00" stroke="#00ff00" stroke-width=".1661" points="302.1648,-82.8938 293.9728,-76.175 296.1869,-86.5359 302.1648,-82.8938"/>
</g>
<!-- 1543&#45;&gt;Star&#45;Type 2 -->
<g id="edge61" class="edge">
<title>1543&#45;&gt;Star&#45;Type 2</title>
<path fill="none" stroke="#00ff00" stroke-width=".1988" stroke-dasharray="1,5" d="M353.6072,-126.4685C357.9802,-123.3142 362.7586,-120.2903 367.5491,-118.0244 428.3539,-89.2631 450.1744,-101.5269 514.5491,-82.0244 536.1768,-75.4722 559.7251,-67.1255 579.6999,-59.6745"/>
<polygon fill="#00ff00" stroke="#00ff00" stroke-width=".1988" points="581.0687,-62.8991 589.1946,-56.1005 578.6026,-56.3478 581.0687,-62.8991"/>
</g>
<!-- 1543&#45;&gt;Star&#45;Type 3 -->
<g id="edge32" class="edge">
<title>1543&#45;&gt;Star&#45;Type 3</title>
<path fill="none" stroke="#ff0000" stroke-width=".2572" d="M312.3336,-131.2977C281.1533,-115.1914 223.6955,-85.5114 183.1871,-64.5866"/>
<polygon fill="#ff0000" stroke="#ff0000" stroke-width=".2572" points="184.5408,-61.3466 174.0498,-59.8668 181.3282,-67.5659 184.5408,-61.3466"/>
</g>
<!-- 1543&#45;&gt;Star&#45;Type 5 -->
<g id="edge3" class="edge">
<title>1543&#45;&gt;Star&#45;Type 5</title>
<path fill="none" stroke="#ff0000" stroke-width=".1017" d="M353.0528,-126.2637C357.5316,-123.0413 362.4938,-120.0409 367.5491,-118.0244 496.3817,-66.6351 541.4431,-108.7432 677.5491,-82.0244 710.6905,-75.5184 747.2742,-65.3231 775.6552,-56.7256"/>
<polygon fill="#ff0000" stroke="#ff0000" stroke-width=".1017" points="776.7972,-60.0364 785.3327,-53.7598 774.7461,-53.3436 776.7972,-60.0364"/>
</g>
<!-- 1543&#45;&gt;Star&#45;Type 6 -->
<g id="edge59" class="edge">
<title>1543&#45;&gt;Star&#45;Type 6</title>
<path fill="none" stroke="#ff0000" stroke-width=".2465" d="M354.2933,-127.3178C372.7828,-112.8446 400.9712,-90.7794 424.2171,-72.5831"/>
<polygon fill="#ff0000" stroke="#ff0000" stroke-width=".2465" points="426.4923,-75.247 432.2093,-66.327 422.1775,-69.7349 426.4923,-75.247"/>
</g>
<!-- 1541&#45;&gt;Star&#45;Type 2 -->
<g id="edge25" class="edge">
<title>1541&#45;&gt;Star&#45;Type 2</title>
<path fill="none" stroke="#00ff00" stroke-width=".2109" d="M1050.2189,-134.2641C1035.0832,-128.9962 1014.8438,-122.4215 996.5491,-118.0244 899.3612,-94.6656 872.1729,-103.4882 774.5491,-82.0244 741.563,-74.772 704.9799,-64.5736 676.5603,-56.1611"/>
<polygon fill="#00ff00" stroke="#00ff00" stroke-width=".2109" points="677.4511,-52.7744 666.8678,-53.2677 675.4488,-59.482 677.4511,-52.7744"/>
</g>
<!-- 1541&#45;&gt;Star&#45;Type 4 -->
<g id="edge30" class="edge">
<title>1541&#45;&gt;Star&#45;Type 4</title>
<path fill="none" stroke="#ff0000" stroke-width=".1259" d="M1053.9567,-127.3178C1035.6724,-112.8944 1007.8299,-90.931 984.8087,-72.7708"/>
<polygon fill="#ff0000" stroke="#ff0000" stroke-width=".1259" points="986.9095,-69.9701 976.8905,-66.5246 982.5741,-75.4659 986.9095,-69.9701"/>
</g>
<!-- 1544&#45;&gt;Star&#45;Type 2 -->
<g id="edge49" class="edge">
<title>1544&#45;&gt;Star&#45;Type 2</title>
<path fill="none" stroke="#ff0000" stroke-width=".7022" d="M701.8582,-124.1086C690.76,-111.6979 675.7769,-94.9431 662.1721,-79.7294"/>
<polygon fill="#ff0000" stroke="#ff0000" stroke-width=".7022" points="664.486,-77.0665 655.2111,-71.9453 659.2681,-81.7326 664.486,-77.0665"/>
</g>
<!-- 1544&#45;&gt;Star&#45;Type 6 -->
<g id="edge24" class="edge">
<title>1544&#45;&gt;Star&#45;Type 6</title>
<path fill="none" stroke="#00ff00" stroke-width=".3381" d="M698.0016,-128.5147C692.1883,-124.8209 685.7517,-121.0388 679.5491,-118.0244 636.3108,-97.011 622.811,-98.2251 577.5491,-82.0244 556.2724,-74.4088 532.7782,-65.8982 512.749,-58.6123"/>
<polygon fill="#00ff00" stroke="#00ff00" stroke-width=".3381" points="513.8137,-55.2752 503.2197,-55.1432 511.4191,-61.8529 513.8137,-55.2752"/>
</g>
<!-- 1536&#45;&gt;Star&#45;Type 2 -->
<g id="edge48" class="edge">
<title>1536&#45;&gt;Star&#45;Type 2</title>
<path fill="none" stroke="#00ff00" stroke-width=".4145" d="M802.3336,-131.2977C771.1533,-115.1914 713.6955,-85.5114 673.1871,-64.5866"/>
<polygon fill="#00ff00" stroke="#00ff00" stroke-width=".4145" points="674.5408,-61.3466 664.0498,-59.8668 671.3282,-67.5659 674.5408,-61.3466"/>
</g>
<!-- 1536&#45;&gt;Star&#45;Type 4 -->
<g id="edge51" class="edge">
<title>1536&#45;&gt;Star&#45;Type 4</title>
<path fill="none" stroke="#00ff00" stroke-width=".5723" d="M843.5634,-126.6488C860.0889,-112.6351 884.56,-91.8833 905.274,-74.3177"/>
<polygon fill="#00ff00" stroke="#00ff00" stroke-width=".5723" points="907.6413,-76.8993 913.0045,-67.7622 903.1139,-71.5605 907.6413,-76.8993"/>
</g>
<!-- 1536&#45;&gt;Star&#45;Type 5 -->
<g id="edge14" class="edge">
<title>1536&#45;&gt;Star&#45;Type 5</title>
<path fill="none" stroke="#00ff00" stroke-width=".1512" d="M824.5491,-117.8796C824.5491,-110.0989 824.5491,-101.2099 824.5491,-92.3041"/>
<polygon fill="#00ff00" stroke="#00ff00" stroke-width=".1512" points="828.0492,-92.3002 824.5491,-82.3003 821.0492,-92.3003 828.0492,-92.3002"/>
</g>
</g>
</svg>
